<svg width="44" height="44" viewBox="0 0 44 44" fill="none" xmlns="http://www.w3.org/2000/svg">
<g clip-path="url(#clip0_2163_5917)">
<mask id="mask0_2163_5917" style="mask-type:luminance" maskUnits="userSpaceOnUse" x="0" y="0" width="44" height="44">
<path d="M35.0204 0H8.97957C4.02029 0 0 4.02029 0 8.97957V35.0204C0 39.9797 4.02029 44 8.97957 44H35.0204C39.9797 44 44 39.9797 44 35.0204V8.97957C44 4.02029 39.9797 0 35.0204 0Z" fill="white"/>
</mask>
<g mask="url(#mask0_2163_5917)">
<path d="M44 -12.7959H0V56.796H44V-12.7959Z" fill="#3657C3"/>
<path d="M19.4737 33.9188C17.789 33.9188 16.378 33.6099 15.2408 32.9922C14.1036 32.3604 13.2402 31.5321 12.6506 30.5072C12.0749 29.4683 11.7871 28.3312 11.7871 27.0957C11.7871 25.9445 11.9907 24.9336 12.3978 24.0632C12.805 23.1928 13.4087 22.4557 14.2089 21.852C15.0092 21.2342 15.9919 20.7359 17.1572 20.3568C18.168 20.062 19.3122 19.8023 20.5898 19.5776C21.8674 19.353 23.2081 19.1424 24.6121 18.9458C26.03 18.7493 27.434 18.5528 28.8239 18.3562L27.2234 19.2407C27.2515 17.4577 26.8724 16.138 26.0862 15.2816C25.314 14.4111 23.9803 13.976 22.085 13.976C20.8916 13.976 19.7966 14.2567 18.7998 14.8183C17.803 15.3658 17.108 16.2784 16.715 17.5559L12.6084 16.2924C13.17 14.341 14.237 12.7896 15.8094 11.6384C17.3958 10.4872 19.5017 9.91156 22.1271 9.91156C24.1628 9.91156 25.9318 10.2626 27.434 10.9645C28.9502 11.6524 30.0593 12.7475 30.7613 14.2497C31.1263 14.9938 31.3509 15.78 31.4351 16.6083C31.5194 17.4366 31.5615 18.3281 31.5615 19.2828V33.287H27.6656V28.0855L28.4237 28.7594C27.4831 30.5002 26.2827 31.7989 24.8226 32.6552C23.3766 33.4976 21.5936 33.9188 19.4737 33.9188ZM20.2529 30.3177C21.5024 30.3177 22.5764 30.1001 23.4749 29.6649C24.3734 29.2156 25.0964 28.647 25.6439 27.9591C26.1915 27.2712 26.5495 26.5552 26.7179 25.8111C26.9566 25.1372 27.09 24.3791 27.1181 23.5367C27.1602 22.6943 27.1813 22.0205 27.1813 21.515L28.6133 22.0415C27.2234 22.2521 25.9598 22.4417 24.8226 22.6101C23.6855 22.7786 22.6536 22.9471 21.727 23.1155C20.8144 23.27 20.0001 23.4595 19.2842 23.6841C18.6804 23.8947 18.1399 24.1474 17.6626 24.4423C17.1993 24.7371 16.8272 25.0951 16.5465 25.5163C16.2797 25.9374 16.1463 26.4499 16.1463 27.0536C16.1463 27.6432 16.2938 28.1908 16.5886 28.6962C16.8834 29.1875 17.3327 29.5807 17.9363 29.8755C18.54 30.1703 19.3122 30.3177 20.2529 30.3177Z" fill="white"/>
</g>
</g>
<defs>
<clipPath id="clip0_2163_5917">
<rect width="44" height="44" rx="12" fill="white"/>
</clipPath>
</defs>
</svg>
