<svg width="16" height="16" viewBox="0 0 16 16" fill="none" xmlns="http://www.w3.org/2000/svg">
<path d="M2.66699 4C2.66699 5.10467 5.05499 6 8.00033 6C10.9457 6 13.3337 5.10467 13.3337 4M2.66699 4C2.66699 2.89533 5.05499 2 8.00033 2C10.9457 2 13.3337 2.89533 13.3337 4M2.66699 4V8M13.3337 4V8M2.66699 8C2.66699 9.10467 5.05499 10 8.00033 10C8.74566 10 9.45566 9.94267 10.1003 9.83933M2.66699 8V12C2.66699 13.1047 5.05499 14 8.00033 14C8.10499 14 8.20833 13.9987 8.31099 13.9967M10.667 12.6667H14.667M14.667 12.6667L12.667 10.6667M14.667 12.6667L12.667 14.6667" stroke="currentColor" stroke-width="1.25" stroke-linecap="round" stroke-linejoin="round"/>
</svg>
