<svg width="16" height="16" viewBox="0 0 16 16" fill="none" xmlns="http://www.w3.org/2000/svg">
<path d="M6.66699 2.66666L9.33366 13.3333M8.00033 8L2.66699 9.33333M2.66699 4C2.66699 3.64638 2.80747 3.30724 3.05752 3.05719C3.30756 2.80714 3.6467 2.66666 4.00033 2.66666H12.0003C12.3539 2.66666 12.6931 2.80714 12.9431 3.05719C13.1932 3.30724 13.3337 3.64638 13.3337 4V12C13.3337 12.3536 13.1932 12.6928 12.9431 12.9428C12.6931 13.1929 12.3539 13.3333 12.0003 13.3333H4.00033C3.6467 13.3333 3.30756 13.1929 3.05752 12.9428C2.80747 12.6928 2.66699 12.3536 2.66699 12V4Z" stroke="currentColor" stroke-width="1.25" stroke-linecap="round" stroke-linejoin="round"/>
</svg>
