<svg width="17" height="16" viewBox="0 0 17 16" fill="none" xmlns="http://www.w3.org/2000/svg">
<path d="M5.83333 6L11.1667 6M5.83333 8.66667H9.83333M12.5 2.66667C13.0304 2.66667 13.5391 2.87739 13.9142 3.25246C14.2893 3.62753 14.5 4.13624 14.5 4.66667L14.5 10C14.5 10.5304 14.2893 11.0391 13.9142 11.4142C13.5391 11.7893 13.0304 12 12.5 12H9.16667L5.83333 14V12H4.5C3.96957 12 3.46086 11.7893 3.08579 11.4142C2.71071 11.0391 2.5 10.5304 2.5 10L2.5 4.66667C2.5 4.13624 2.71071 3.62753 3.08579 3.25246C3.46086 2.87739 3.96957 2.66667 4.5 2.66667L12.5 2.66667Z" stroke="currentColor" stroke-width="2" stroke-linecap="round" stroke-linejoin="round"/>
</svg>
