<svg width="20" height="20" viewBox="0 0 20 20" fill="none" xmlns="http://www.w3.org/2000/svg">
<path d="M6.66667 7.50001L13.3333 7.50001M6.66667 10.8333L11.6667 10.8333M15 3.33334C15.663 3.33334 16.2989 3.59674 16.7678 4.06558C17.2366 4.53442 17.5 5.1703 17.5 5.83334V12.5C17.5 13.1631 17.2366 13.7989 16.7678 14.2678C16.2989 14.7366 15.663 15 15 15H10.8333L6.66667 17.5L6.66667 15H5C4.33696 15 3.70107 14.7366 3.23223 14.2678C2.76339 13.7989 2.5 13.1631 2.5 12.5L2.5 5.83334C2.5 5.1703 2.76339 4.53442 3.23223 4.06558C3.70107 3.59674 4.33696 3.33334 5 3.33334L15 3.33334Z" stroke="currentColor" stroke-width="1.5" stroke-linecap="round" stroke-linejoin="round"/>
</svg>
