<svg width="21" height="20" viewBox="0 0 21 20" fill="none" xmlns="http://www.w3.org/2000/svg">
<path d="M17.1663 9.16671C16.9625 7.70022 16.2822 6.34142 15.2302 5.29962C14.1782 4.25782 12.8128 3.59081 11.3444 3.40133C9.876 3.21186 8.38603 3.51044 7.10401 4.25108C5.82199 4.99171 4.81905 6.13332 4.24967 7.50004M3.83301 4.16671V7.50004H7.16634M3.83301 10.8334C4.03681 12.2998 4.71712 13.6586 5.76914 14.7005C6.82117 15.7423 8.18654 16.4093 9.65495 16.5987C11.1234 16.7882 12.6133 16.4896 13.8953 15.749C15.1774 15.0084 16.1803 13.8668 16.7497 12.5M17.1663 15.8334V12.5H13.833" stroke="currentColor" stroke-width="2" stroke-linecap="round" stroke-linejoin="round"/>
</svg>
