<svg width="100" height="100" viewBox="0 0 100 100" fill="none" xmlns="http://www.w3.org/2000/svg">
<g clip-path="url(#clip0_2164_1515)">
<mask id="mask0_2164_1515" style="mask-type:luminance" maskUnits="userSpaceOnUse" x="0" y="0" width="100" height="100">
<path d="M79.5919 0H20.4081C9.13702 0 0 9.13702 0 20.4081V79.5919C0 90.863 9.13702 100 20.4081 100H79.5919C90.863 100 100 90.863 100 79.5919V20.4081C100 9.13702 90.863 0 79.5919 0Z" fill="white"/>
</mask>
<g mask="url(#mask0_2164_1515)">
<path d="M100 -29.0816H0V129.082H100V-29.0816Z" fill="#3657C3"/>
<path d="M44.2576 77.0882C40.4287 77.0882 37.2219 76.3862 34.6375 74.9823C32.0529 73.5464 30.0906 71.6639 28.7505 69.3346C27.4423 66.9735 26.7881 64.389 26.7881 61.5811C26.7881 58.9647 27.2508 56.6673 28.1761 54.689C29.1015 52.7109 30.4735 51.0357 32.2922 49.6637C34.1109 48.2597 36.3444 47.127 38.9928 46.2655C41.2901 45.5954 43.8906 45.0051 46.7941 44.4946C49.6978 43.9841 52.7449 43.5055 55.9357 43.0587C59.1584 42.6121 62.3491 42.1654 65.508 41.7186L61.8705 43.7288C61.9344 39.6766 61.0728 36.6773 59.286 34.7309C57.5311 32.7526 54.4999 31.7635 50.1923 31.7635C47.4802 31.7635 44.9914 32.4016 42.7259 33.6779C40.4605 34.9223 38.8811 36.9963 37.9877 39.8999L28.6547 37.0282C29.9311 32.5931 32.356 29.0673 35.9297 26.4509C39.5352 23.8345 44.3213 22.5263 50.2881 22.5263C54.9146 22.5263 58.9351 23.324 62.3491 24.9193C65.7952 26.4827 68.3159 28.9715 69.9112 32.3857C70.7408 34.0768 71.2513 35.8637 71.4427 37.7462C71.6343 39.6287 71.7299 41.6549 71.7299 43.8246V75.6523H62.8756V63.8306L64.5986 65.3622C62.4608 69.3187 59.7327 72.2702 56.4143 74.2165C53.1279 76.131 49.0756 77.0882 44.2576 77.0882ZM46.0284 68.9039C48.8682 68.9039 51.3091 68.4094 53.3512 67.4202C55.3932 66.3992 57.0365 65.1069 58.2809 63.5434C59.5253 61.98 60.3389 60.3527 60.7218 58.6616C61.2643 57.1301 61.5674 55.407 61.6312 53.4926C61.7269 51.5781 61.7748 50.0465 61.7748 48.8978L65.0293 50.0944C61.8705 50.573 58.9988 51.0038 56.4143 51.3866C53.8298 51.7695 51.4845 52.1525 49.3787 52.5353C47.3047 52.8863 45.454 53.317 43.8268 53.8275C42.4547 54.3062 41.2263 54.8806 40.1415 55.5506C39.0885 56.2207 38.2429 57.0343 37.6048 57.9915C36.9986 58.9487 36.6954 60.1134 36.6954 61.4854C36.6954 62.8255 37.0305 64.0699 37.7005 65.2186C38.3706 66.3353 39.3916 67.2288 40.7636 67.8989C42.1356 68.5689 43.8906 68.9039 46.0284 68.9039Z" fill="white"/>
</g>
</g>
<defs>
<clipPath id="clip0_2164_1515">
<rect width="100" height="100" rx="12" fill="white"/>
</clipPath>
</defs>
</svg>
